# xmcd
#
# Track frame offsets: 
#        150
#        21775
#        39592
#        57205
#        68090
#        84167
#        101605
#        119692
#        131450
#        144062
#
# Disc length: 2121 seconds
#
# Revision: 2
# Processed by: cddbd v1.5PL3 Copyright (c) Steve Scherf et al.
# Submitted via: ExactAudioCopy v0.95a4
#
DISCID=7c08470a
DTITLE=Michael Martin Murphey - Blue Sky - Night Thunder
DYEAR=1975
DGENRE=Country
TTITLE0=Wildfire
TTITLE1=Carolina In The Pines
TTITLE2=Desert Rat
TTITLE3=Wild Bird
TTITLE4=Blue Sky Riding Song
TTITLE5=Medicine Man
TTITLE6=Secret Mountain Hideout
TTITLE7=Without My Lady There
TTITLE8=Night Thunder
TTITLE9=Rings Of Life
EXTD=
EXTT0=
EXTT1=
EXTT2=
EXTT3=
EXTT4=
EXTT5=
EXTT6=
EXTT7=
EXTT8=
EXTT9=
PLAYORDER=
